<?xml version="1.0" encoding="UTF-8"?>
<svg xmlns="http://www.w3.org/2000/svg" viewBox="0 0 1024 1024" role="img" aria-labelledby="title description">
  <title id="title">记忆面包品牌标记</title>
  <desc id="description">可可棕色“记”字标记，左上角是一枚橙色面包。</desc>
  <g fill="#43281F">
    <rect x="236" y="331" width="200" height="82" rx="35"/>
    <path d="M319 445h27a33 33 0 0 1 33 33v199c0 14 15 22 27 16l14-7c14-7 31 3 33 19l2 35c1 16-7 30-21 37l-119 40c-14 6-31 1-39-11l-16-20c-10-13-6-32 7-42l7-5c8-6 12-16 12-26V478a33 33 0 0 1 33-33Z"/>
    <path d="M512 259h274c27 0 48 22 48 48v193c0 26-21 48-48 48H556v176c0 17 14 31 31 31h153c17 0 28-14 28-31v-43c0-17 14-31 31-31h7c17 0 30 14 30 31v71c0 28-23 51-51 51H518c-28 0-36-23-36-51V478c0-16 13-28 29-28h213c9 0 16-7 16-16v-82c0-9-7-15-16-15H511c-16 0-29-13-29-29v-20c0-16 13-29 30-29Z"/>
  </g>
  <path fill="#F0782D" d="M292 236c-14-7-19-22-14-36 8-21 32-31 59-31s51 10 59 31c5 14 0 29-14 36v46c0 12-10 22-22 22h-46c-12 0-22-10-22-22v-46Z"/>
</svg>
